<svg xmlns="http://www.w3.org/2000/svg" width="1200" height="810" viewBox="0 0 1200 810">
  <defs>
    <linearGradient id="bg" x1="0%" y1="0%" x2="100%" y2="100%">
      <stop offset="0%" style="stop-color:#00BCD4"/>
      <stop offset="100%" style="stop-color:#0097A7"/>
    </linearGradient>
    <filter id="shadow" x="-2%" y="-2%" width="104%" height="104%">
      <feDropShadow dx="0" dy="2" stdDeviation="4" flood-color="rgba(0,0,0,0.15)"/>
    </filter>
  </defs>
  <rect width="1200" height="810" fill="url(#bg)"/>
  <!-- トロピカル装飾: ヤシの木 -->
  <g opacity="0.08" fill="white">
    <path d="M50,810 Q60,650 80,600 Q40,580 20,500 Q60,520 90,580 Q85,540 100,480 Q100,550 95,590 Q120,560 160,540 Q120,580 90,600 Q100,700 90,810Z"/>
    <path d="M1150,810 Q1140,650 1120,600 Q1160,580 1180,500 Q1140,520 1110,580 Q1115,540 1100,480 Q1100,550 1105,590 Q1080,560 1040,540 Q1080,580 1110,600 Q1100,700 1110,810Z"/>
  </g>
  <!-- 波 -->
  <path d="M0,790 Q150,770 300,790 Q450,810 600,790 Q750,770 900,790 Q1050,810 1200,790 L1200,810 L0,810Z" fill="white" opacity="0.06"/>
  <path d="M0,800 Q150,780 300,800 Q450,820 600,800 Q750,780 900,800 Q1050,820 1200,800 L1200,810 L0,810Z" fill="white" opacity="0.04"/>
  <!-- 花柄アクセント -->
  <circle cx="100" cy="50" r="8" fill="#E0F7FA" opacity="0.3"/>
  <circle cx="130" cy="35" r="5" fill="#E0F7FA" opacity="0.2"/>
  <circle cx="1100" cy="50" r="8" fill="#E0F7FA" opacity="0.3"/>
  <circle cx="1070" cy="35" r="5" fill="#E0F7FA" opacity="0.2"/>
  <circle cx="80" cy="760" r="6" fill="#E0F7FA" opacity="0.2"/>
  <circle cx="1120" cy="760" r="6" fill="#E0F7FA" opacity="0.2"/>
  <!-- 上段: 大ボタン全幅 -->
  <rect x="20" y="20" width="1160" height="460" rx="20" fill="white" opacity="0.18" filter="url(#shadow)"/>
  <rect x="22" y="22" width="1156" height="456" rx="18" fill="none" stroke="white" stroke-width="2" opacity="0.3"/>
  <circle cx="600" cy="170" r="50" fill="white" opacity="0.2"/>
  <text x="600" y="188" font-family="Hiragino Sans, Noto Sans JP, sans-serif" font-weight="700" font-size="42" fill="white" text-anchor="middle">&#x2714;</text>
  <text x="600" y="300" font-family="Hiragino Sans, Noto Sans JP, sans-serif" font-weight="700" font-size="48" fill="white" text-anchor="middle">30秒診断スタート</text>
  <text x="600" y="360" font-family="Hiragino Sans, Noto Sans JP, sans-serif" font-weight="400" font-size="22" fill="white" text-anchor="middle" opacity="0.8">あなたにぴったりのプランがわかる！</text>
  <!-- 下段3分割 -->
  <rect x="20" y="500" width="373" height="290" rx="16" fill="white" opacity="0.15" filter="url(#shadow)"/>
  <rect x="22" y="502" width="369" height="286" rx="14" fill="none" stroke="white" stroke-width="1.5" opacity="0.25"/>
  <text x="206" y="655" font-family="Hiragino Sans, Noto Sans JP, sans-serif" font-weight="700" font-size="28" fill="white" text-anchor="middle">よくある質問</text>
  <rect x="413" y="500" width="374" height="290" rx="16" fill="white" opacity="0.15" filter="url(#shadow)"/>
  <rect x="415" y="502" width="370" height="286" rx="14" fill="none" stroke="white" stroke-width="1.5" opacity="0.25"/>
  <text x="600" y="655" font-family="Hiragino Sans, Noto Sans JP, sans-serif" font-weight="700" font-size="28" fill="white" text-anchor="middle">バリリンガルとは</text>
  <rect x="807" y="500" width="373" height="290" rx="16" fill="white" opacity="0.15" filter="url(#shadow)"/>
  <rect x="809" y="502" width="369" height="286" rx="14" fill="none" stroke="white" stroke-width="1.5" opacity="0.25"/>
  <text x="993" y="655" font-family="Hiragino Sans, Noto Sans JP, sans-serif" font-weight="700" font-size="28" fill="white" text-anchor="middle">チャットで相談</text>
</svg>
